<svg version="1.0" xmlns="http://www.w3.org/2000/svg" width="170.667" height="170.667" viewBox="0 0 128 128"><path d="M1.6 11.6c-2.2 2.2-2 5 .6 6.8C3.8 19.5 6.8 20 12.7 20c4.6 0 8.3.3 8.3.7 0 .4 3 14.4 6.6 31.2l6.5 30.6-2 4.3C28.6 93.9 29.7 98 34.9 98h2.5L35 99.7c-3.9 2.7-4.9 4.5-5 8.6 0 2.9.7 4.5 2.9 6.8 4.1 4 9.1 4 13.2 0 4.2-4.2 4-9.2-.5-13.7L42.2 98h32.1c30.6 0 32 .1 29.7 1.7-3.9 2.7-4.9 4.5-5 9 0 3.4.5 4.6 3.1 6.7 4.3 3.7 8.9 3.5 12.8-.5 4.4-4.3 4.3-8.9-.3-13.5-3.1-3.1-3.2-3.4-1.2-3.4 2.8 0 4.6-1.8 4.6-4.5 0-4.4-.5-4.5-38.7-4.5H43.1l.6-5.3c.3-2.8.6-5.3.7-5.4.1-.1 18.1-2.2 40.1-4.8 30-3.5 40.4-5 41.7-6.2 1.6-1.4 1.8-3.9 1.8-22.8 0-15.3-.3-21.6-1.2-22.8-1.2-1.5-5.6-1.7-48.8-1.9l-47.4-.3-.7-3.2c-1.2-6-2-6.3-15-6.3-9.4 0-12.1.3-13.3 1.6z"/></svg>