<svg version="1.0" xmlns="http://www.w3.org/2000/svg" width="682.667" height="682.667" viewBox="0 0 512 512"><path d="M121.5 1.5c-57 8-102.9 49-116.9 104.5-1.4 5.2-2.9 13.5-3.5 18.5-1.5 12.4-1.5 250.6 0 263C8 445.8 49.5 493.2 106 507.4c5.2 1.4 13.6 2.9 18.5 3.5 12.4 1.5 250.6 1.5 263 0 52.5-6.2 96.4-40.5 115.5-90.1 3.1-8.1 6.7-23.3 7.9-33.3 1.5-12.4 1.5-250.6 0-263C504.7 72 470.4 28.1 420.8 9c-8.1-3.1-23.3-6.7-33.3-7.9-13.7-1.7-254.1-1.3-266 .4zm296.1 65.2c12.9 4.3 23.3 14.7 27.7 27.7 2.1 6.2 2.2 18.4.2 25-8.2 27.1-40.5 38.7-64 23-13.8-9.1-21.1-25.4-18.6-41.3 2.6-16 13.5-29.1 28.4-34.2 6.8-2.3 19.7-2.5 26.3-.2zM278 117.5c29.7 4.9 55.9 18.3 77 39.5 26.9 26.8 41 60.9 41 99s-14.1 72.2-41 99c-26.8 26.9-60.9 41-99 41s-72.2-14.1-99-41c-26.9-26.8-41-60.9-41-99s14.1-72.2 41-99c20.7-20.8 47-34.4 76-39.5 10.3-1.7 34.6-1.8 45 0z"/><path d="M398.9 96.5c-5.8 3.1-8 11.6-4.5 17 6.8 10.4 22.6 5.8 22.6-6.5 0-9-10.2-14.8-18.1-10.5zm-162.3 51.1C184.5 157 146 203 146 256c0 67.9 61.9 120.1 128.6 108.5 73.3-12.8 113.1-92.9 79.1-159-22-42.5-70.2-66.4-117.1-57.9z"/></svg>