<?xml version="1.0" standalone="no"?>
<!DOCTYPE svg PUBLIC "-//W3C//DTD SVG 20010904//EN"
 "http://www.w3.org/TR/2001/REC-SVG-20010904/DTD/svg10.dtd">
<svg version="1.0" xmlns="http://www.w3.org/2000/svg"
 width="128.000000pt" height="128.000000pt" viewBox="0 0 128.000000 128.000000"
 preserveAspectRatio="xMidYMid meet">

<g transform="translate(0.000000,128.000000) scale(0.100000,-0.100000)"
fill="#000000" stroke="none">
<path d="M77 1202 c-42 -42 -77 -84 -77 -93 0 -8 42 -57 93 -107 98 -96 164
-136 244 -148 27 -4 51 -16 69 -35 l28 -29 -32 -37 c-117 -140 -233 -352 -292
-532 -31 -97 -32 -126 -1 -136 26 -8 190 48 318 110 106 51 242 137 326 207
l37 32 29 -28 c19 -18 31 -42 35 -69 12 -80 52 -146 148 -244 50 -51 99 -93
108 -93 20 0 170 150 170 171 0 8 -42 57 -93 107 -98 96 -164 136 -244 148
-27 4 -51 16 -69 35 l-28 29 32 37 c117 140 233 352 292 532 47 144 33 158
-111 111 -180 -59 -392 -175 -532 -292 l-37 -32 -29 28 c-19 18 -31 42 -35 69
-12 80 -52 146 -148 244 -50 51 -99 93 -108 93 -8 0 -50 -35 -93 -78z m748
-377 c14 -13 25 -33 25 -45 0 -31 -26 -87 -66 -142 l-37 -49 -28 27 -29 27 24
31 c13 17 31 46 40 64 l17 33 -33 -17 c-18 -9 -47 -27 -64 -40 l-31 -24 -27
29 -27 28 49 37 c95 69 148 81 187 41z m-259 -219 c-13 -17 -31 -46 -40 -64
l-17 -33 33 17 c18 9 47 27 64 40 l31 24 27 -29 28 -29 -58 -41 c-100 -71
-168 -77 -196 -16 -16 35 2 87 53 159 l41 58 29 -28 29 -27 -24 -31z"/>
</g>
</svg>
