<?xml version="1.0" standalone="no"?>
<!DOCTYPE svg PUBLIC "-//W3C//DTD SVG 20010904//EN"
 "http://www.w3.org/TR/2001/REC-SVG-20010904/DTD/svg10.dtd">
<svg version="1.0" xmlns="http://www.w3.org/2000/svg"
 width="128.000000pt" height="128.000000pt" viewBox="0 0 128.000000 128.000000"
 preserveAspectRatio="xMidYMid meet">

<g transform="translate(0.000000,128.000000) scale(0.100000,-0.100000)"
fill="#000000" stroke="none">
<path d="M16 1164 c-22 -22 -20 -50 6 -68 16 -11 46 -16 105 -16 46 0 83 -3
83 -7 0 -4 30 -144 66 -312 l65 -306 -20 -43 c-35 -71 -24 -112 28 -112 l25 0
-24 -17 c-39 -27 -49 -45 -50 -86 0 -29 7 -45 29 -68 41 -40 91 -40 132 0 42
42 40 92 -5 137 l-34 34 321 0 c306 0 320 -1 297 -17 -39 -27 -49 -45 -50 -90
0 -34 5 -46 31 -67 43 -37 89 -35 128 5 44 43 43 89 -3 135 -31 31 -32 34 -12
34 28 0 46 18 46 45 0 44 -5 45 -387 45 l-362 0 6 53 c3 28 6 53 7 54 1 1 181
22 401 48 300 35 404 50 417 62 16 14 18 39 18 228 0 153 -3 216 -12 228 -12
15 -56 17 -488 19 l-474 3 -7 32 c-12 60 -20 63 -150 63 -94 0 -121 -3 -133
-16z"/>
</g>
</svg>
