<?xml version="1.0" standalone="no"?>
<!DOCTYPE svg PUBLIC "-//W3C//DTD SVG 20010904//EN"
 "http://www.w3.org/TR/2001/REC-SVG-20010904/DTD/svg10.dtd">
<svg version="1.0" xmlns="http://www.w3.org/2000/svg"
 width="128.000000pt" height="128.000000pt" viewBox="0 0 128.000000 128.000000"
 preserveAspectRatio="xMidYMid meet">

<g transform="translate(0.000000,128.000000) scale(0.100000,-0.100000)"
fill="#000000" stroke="none">
<path d="M259 1273 c-1 -4 -1 -73 1 -153 3 -234 -26 -382 -91 -451 -28 -30
-29 -35 -29 -125 l0 -94 85 0 85 0 0 28 c0 41 17 52 80 52 63 0 80 -11 80 -52
l0 -28 75 0 75 0 0 94 c0 73 -5 105 -21 143 -30 71 -57 191 -74 338 -8 71 -15
135 -15 141 0 8 16 7 53 -3 49 -13 101 -13 175 3 l33 7 -6 -54 c-20 -179 -28
-232 -45 -307 -11 -46 -31 -107 -45 -137 -22 -46 -25 -65 -23 -137 l3 -83 73
-3 72 -3 0 29 c0 43 19 53 92 50 l63 -3 3 -38 3 -37 90 0 89 0 0 94 c0 90 -1
95 -29 125 -66 70 -94 210 -89 446 l3 160 -125 0 -125 0 -5 -35 c-5 -32 -9
-36 -50 -47 -62 -16 -98 -15 -158 2 -46 14 -51 18 -54 48 l-3 32 -122 3 c-68
1 -124 -1 -124 -5z"/>
<path d="M570 1095 c0 -12 14 -15 70 -15 56 0 70 3 70 15 0 12 -14 15 -70 15
-56 0 -70 -3 -70 -15z"/>
<path d="M340 435 l0 -65 50 0 50 0 0 65 0 65 -50 0 -50 0 0 -65z"/>
<path d="M832 438 l3 -63 48 -3 47 -3 0 65 0 66 -50 0 -51 0 3 -62z"/>
<path d="M140 305 l0 -115 85 0 85 0 0 28 c0 41 17 52 80 52 63 0 80 -11 80
-52 l0 -28 75 0 75 0 0 115 0 115 -75 0 -75 0 0 -30 c0 -36 -23 -50 -80 -50
-57 0 -80 14 -80 50 l0 30 -85 0 -85 0 0 -115z"/>
<path d="M652 308 l3 -113 73 -3 72 -3 0 29 c0 43 19 53 92 50 l63 -3 3 -37 3
-38 90 0 89 0 0 115 0 115 -90 0 -90 0 0 -28 c0 -40 -17 -52 -73 -52 -64 0
-87 13 -87 50 l0 30 -75 0 -76 0 3 -112z"/>
<path d="M340 175 l0 -65 50 0 50 0 0 65 0 65 -50 0 -50 0 0 -65z"/>
<path d="M830 175 l0 -65 50 0 50 0 0 65 0 65 -50 0 -50 0 0 -65z"/>
<path d="M140 155 c0 -11 33 -70 49 -89 9 -10 34 -28 56 -39 35 -19 61 -22
208 -25 l167 -4 0 81 0 81 -75 0 -75 0 0 -28 c0 -41 -17 -52 -80 -52 -63 0
-80 11 -80 52 l0 28 -85 0 c-47 0 -85 -2 -85 -5z"/>
<path d="M650 79 l0 -81 173 4 c178 4 207 10 261 57 16 14 56 82 56 96 0 3
-40 5 -90 5 l-90 0 0 -28 c0 -41 -17 -52 -82 -52 -61 0 -78 13 -78 59 0 19 -6
21 -75 21 l-75 0 0 -81z"/>
</g>
</svg>
