<?xml version="1.0" standalone="no"?>
<!DOCTYPE svg PUBLIC "-//W3C//DTD SVG 20010904//EN"
 "http://www.w3.org/TR/2001/REC-SVG-20010904/DTD/svg10.dtd">
<svg version="1.0" xmlns="http://www.w3.org/2000/svg"
 width="128.000000pt" height="128.000000pt" viewBox="0 0 128.000000 128.000000"
 preserveAspectRatio="xMidYMid meet">

<g transform="translate(0.000000,128.000000) scale(0.100000,-0.100000)"
fill="#000000" stroke="none">
<path d="M330 1110 c-162 -94 -303 -180 -312 -191 -17 -20 -18 -56 -18 -450 0
-512 -12 -469 135 -469 l95 0 0 324 c0 312 1 324 21 350 l20 26 369 0 369 0
20 -26 c20 -26 21 -38 21 -350 l0 -324 95 0 c147 0 135 -43 135 469 0 394 -1
430 -17 450 -22 25 -601 361 -623 361 -9 0 -148 -77 -310 -170z"/>
<path d="M350 525 l0 -55 290 0 290 0 0 55 0 55 -290 0 -290 0 0 -55z"/>
<path d="M350 290 l0 -60 290 0 290 0 0 60 0 60 -290 0 -290 0 0 -60z"/>
<path d="M350 60 l0 -60 290 0 290 0 0 60 0 60 -290 0 -290 0 0 -60z"/>
</g>
</svg>
