<?xml version="1.0" standalone="no"?>
<!DOCTYPE svg PUBLIC "-//W3C//DTD SVG 20010904//EN"
 "http://www.w3.org/TR/2001/REC-SVG-20010904/DTD/svg10.dtd">
<svg version="1.0" xmlns="http://www.w3.org/2000/svg"
 width="128.000000pt" height="128.000000pt" viewBox="0 0 128.000000 128.000000"
 preserveAspectRatio="xMidYMid meet">

<g transform="translate(0.000000,128.000000) scale(0.100000,-0.100000)"
fill="#000000" stroke="none">
<path d="M209 1257 c-24 -13 -57 -43 -74 -66 -26 -37 -30 -51 -30 -111 0 -60
4 -74 30 -111 76 -107 221 -116 309 -19 89 98 62 246 -56 304 -65 33 -121 33
-179 3z"/>
<path d="M915 1267 c-72 -29 -116 -83 -130 -158 -22 -116 98 -242 215 -226
101 13 171 86 178 184 5 73 -25 134 -86 177 -47 33 -127 44 -177 23z"/>
<path d="M243 799 c-91 -17 -172 -81 -215 -168 -22 -44 -23 -58 -26 -324 -2
-203 0 -282 9 -293 9 -11 44 -14 164 -14 l153 0 4 103 c3 90 7 108 33 156 23
42 70 91 124 128 3 2 -9 18 -27 36 -74 77 -94 200 -47 292 13 27 22 52 19 56
-14 23 -131 40 -191 28z"/>
<path d="M929 800 c-39 -7 -89 -25 -89 -33 0 -1 11 -24 25 -51 47 -93 27 -216
-48 -294 -31 -32 -31 -34 -12 -44 33 -18 94 -86 117 -131 17 -33 23 -64 26
-144 l4 -103 153 0 c120 0 155 3 164 14 9 11 11 90 9 293 -3 266 -4 280 -26
324 -60 123 -191 191 -323 169z"/>
<path d="M565 766 c-58 -26 -105 -101 -105 -166 0 -107 119 -197 222 -169 57
15 124 82 133 132 14 71 -16 145 -77 190 -35 26 -130 33 -173 13z"/>
<path d="M580 341 c-71 -23 -123 -67 -155 -131 -23 -45 -33 -174 -15 -195 19
-22 441 -22 460 0 18 21 8 150 -15 195 -24 48 -63 88 -109 112 -43 22 -128 32
-166 19z"/>
</g>
</svg>
