<?xml version="1.0" standalone="no"?>
<!DOCTYPE svg PUBLIC "-//W3C//DTD SVG 20010904//EN"
 "http://www.w3.org/TR/2001/REC-SVG-20010904/DTD/svg10.dtd">
<svg version="1.0" xmlns="http://www.w3.org/2000/svg"
 width="128.000000pt" height="128.000000pt" viewBox="0 0 128.000000 128.000000"
 preserveAspectRatio="xMidYMid meet">

<g transform="translate(0.000000,128.000000) scale(0.100000,-0.100000)"
fill="#000000" stroke="none">
<path d="M1015 1175 c-188 -43 -317 -98 -460 -193 l-87 -57 213 -3 c136 -1
217 -6 226 -13 10 -9 13 -60 13 -227 l0 -215 33 44 c112 147 202 368 238 581
20 119 6 126 -176 83z"/>
<path d="M334 783 l-47 -58 203 -3 c128 -1 208 -6 217 -13 9 -8 13 -62 15
-216 l3 -206 58 47 57 47 0 230 0 229 -229 0 -230 0 -47 -57z"/>
<path d="M200 593 c-58 -93 -120 -267 -120 -338 0 -43 16 -55 71 -55 l48 0 3
-51 c4 -72 17 -78 116 -58 88 19 204 65 275 109 l47 30 0 205 0 205 -205 0
-205 0 -30 -47z"/>
</g>
</svg>
