<?xml version="1.0" standalone="no"?>
<!DOCTYPE svg PUBLIC "-//W3C//DTD SVG 20010904//EN"
 "http://www.w3.org/TR/2001/REC-SVG-20010904/DTD/svg10.dtd">
<svg version="1.0" xmlns="http://www.w3.org/2000/svg"
 width="128.000000pt" height="128.000000pt" viewBox="0 0 128.000000 128.000000"
 preserveAspectRatio="xMidYMid meet">

<g transform="translate(0.000000,128.000000) scale(0.100000,-0.100000)"
fill="#000000" stroke="none">
<path d="M509 1217 c-127 -53 -207 -152 -228 -283 -25 -163 54 -311 209 -387
57 -28 74 -32 150 -32 76 0 93 4 150 32 115 57 190 153 209 269 25 162 -60
324 -207 392 -82 38 -204 42 -283 9z"/>
<path d="M282 540 c-134 -89 -235 -238 -269 -393 -13 -62 -14 -79 -3 -91 11
-14 84 -16 630 -16 538 0 619 2 630 15 10 12 10 28 0 78 -33 168 -140 324
-286 417 l-48 30 -25 -23 c-70 -64 -161 -97 -271 -97 -110 0 -201 33 -271 97
l-26 24 -61 -41z"/>
</g>
</svg>
