<svg version="1.0" xmlns="http://www.w3.org/2000/svg" width="170.667" height="170.667" viewBox="0 0 128 128"><path d="M7.7 7.8C3.5 12 0 16.2 0 17.1c0 .8 4.2 5.7 9.3 10.7 9.8 9.6 16.4 13.6 24.4 14.8 2.7.4 5.1 1.6 6.9 3.5l2.8 2.9-3.2 3.7c-11.7 14-23.3 35.2-29.2 53.2-3.1 9.7-3.2 12.6-.1 13.6 2.6.8 19-4.8 31.8-11 10.6-5.1 24.2-13.7 32.6-20.7l3.7-3.2 2.9 2.8c1.9 1.8 3.1 4.2 3.5 6.9 1.2 8 5.2 14.6 14.8 24.4 5 5.1 9.9 9.3 10.8 9.3 2 0 17-15 17-17.1 0-.8-4.2-5.7-9.3-10.7-9.8-9.6-16.4-13.6-24.4-14.8-2.7-.4-5.1-1.6-6.9-3.5L84.6 79l3.2-3.7c11.7-14 23.3-35.2 29.2-53.2 4.7-14.4 3.3-15.8-11.1-11.1-18 5.9-39.2 17.5-53.2 29.2L49 43.4l-2.9-2.8c-1.9-1.8-3.1-4.2-3.5-6.9-1.2-8-5.2-14.6-14.8-24.4C22.8 4.2 17.9 0 17 0c-.8 0-5 3.5-9.3 7.8zm74.8 37.7c1.4 1.3 2.5 3.3 2.5 4.5 0 3.1-2.6 8.7-6.6 14.2l-3.7 4.9-2.8-2.7-2.9-2.7 2.4-3.1c1.3-1.7 3.1-4.6 4-6.4l1.7-3.3-3.3 1.7c-1.8.9-4.7 2.7-6.4 4L64.3 59l-2.7-2.9-2.7-2.8 4.9-3.7c9.5-6.9 14.8-8.1 18.7-4.1zM56.6 67.4c-1.3 1.7-3.1 4.6-4 6.4l-1.7 3.3 3.3-1.7c1.8-.9 4.7-2.7 6.4-4l3.1-2.4 2.7 2.9 2.8 2.9-5.8 4.1c-10 7.1-16.8 7.7-19.6 1.6-1.6-3.5.2-8.7 5.3-15.9l4.1-5.8 2.9 2.8 2.9 2.7-2.4 3.1z"/></svg>