<svg version="1.0" xmlns="http://www.w3.org/2000/svg" width="170.667" height="170.667" viewBox="0 0 128 128"><path d="M25.9.7c-.1.4-.1 7.3.1 15.3.3 23.4-2.6 38.2-9.1 45.1-2.8 3-2.9 3.5-2.9 12.5V83h17v-2.8c0-4.1 1.7-5.2 8-5.2s8 1.1 8 5.2V83h15v-9.4c0-7.3-.5-10.5-2.1-14.3-3-7.1-5.7-19.1-7.4-33.8C51.7 18.4 51 12 51 11.4c0-.8 1.6-.7 5.3.3 4.9 1.3 10.1 1.3 17.5-.3l3.3-.7-.6 5.4c-2 17.9-2.8 23.2-4.5 30.7-1.1 4.6-3.1 10.7-4.5 13.7-2.2 4.6-2.5 6.5-2.3 13.7l.3 8.3 7.3.3 7.2.3v-2.9c0-4.3 1.9-5.3 9.2-5l6.3.3.3 3.8.3 3.7H114v-9.4c0-9-.1-9.5-2.9-12.5-6.6-7-9.4-21-8.9-44.6l.3-16h-25L77 4c-.5 3.2-.9 3.6-5 4.7-6.2 1.6-9.8 1.5-15.8-.2-4.6-1.4-5.1-1.8-5.4-4.8L50.5.5 38.3.2C31.5.1 25.9.3 25.9.7z"/><path d="M57 18.5c0 1.2 1.4 1.5 7 1.5s7-.3 7-1.5-1.4-1.5-7-1.5-7 .3-7 1.5zm-23 66V91h10V78H34v6.5zm49.2-.3.3 6.3 4.8.3 4.7.3V78H82.9l.3 6.2z"/><path d="M14 97.5V109h17v-2.8c0-4.1 1.7-5.2 8-5.2s8 1.1 8 5.2v2.8h15V86H47v3c0 3.6-2.3 5-8 5s-8-1.4-8-5v-3H14v11.5zm51.2-.3.3 11.3 7.3.3 7.2.3v-2.9c0-4.3 1.9-5.3 9.2-5l6.3.3.3 3.7.3 3.8H114V86H96v2.8c0 4-1.7 5.2-7.3 5.2-6.4 0-8.7-1.3-8.7-5v-3H64.9l.3 11.2z"/><path d="M34 110.5v6.5h10v-13H34v6.5zm49 0v6.5h10v-13H83v6.5z"/><path d="M14 112.5c0 1.1 3.3 7 4.9 8.9.9 1 3.4 2.8 5.6 3.9 3.5 1.9 6.1 2.2 20.8 2.5l16.7.4V112H47v2.8c0 4.1-1.7 5.2-8 5.2s-8-1.1-8-5.2V112h-8.5c-4.7 0-8.5.2-8.5.5zm51 7.6v8.1l17.3-.4c17.8-.4 20.7-1 26.1-5.7 1.6-1.4 5.6-8.2 5.6-9.6 0-.3-4-.5-9-.5h-9v2.8c0 4.1-1.7 5.2-8.2 5.2-6.1 0-7.8-1.3-7.8-5.9 0-1.9-.6-2.1-7.5-2.1H65v8.1z"/></svg>