<svg version="1.0" xmlns="http://www.w3.org/2000/svg" width="170.667" height="170.667" viewBox="0 0 128 128"><path d="M20.9 2.3c-2.4 1.3-5.7 4.3-7.4 6.6-2.6 3.7-3 5.1-3 11.1s.4 7.4 3 11.1c7.6 10.7 22.1 11.6 30.9 1.9 8.9-9.8 6.2-24.6-5.6-30.4-6.5-3.3-12.1-3.3-17.9-.3zm70.6-1c-7.2 2.9-11.6 8.3-13 15.8-2.2 11.6 9.8 24.2 21.5 22.6 10.1-1.3 17.1-8.6 17.8-18.4.5-7.3-2.5-13.4-8.6-17.7C104.5.3 96.5-.8 91.5 1.3zM24.3 48.1c-9.1 1.7-17.2 8.1-21.5 16.8C.6 69.3.5 70.7.2 97.3c-.2 20.3 0 28.2.9 29.3.9 1.1 4.4 1.4 16.4 1.4h15.3l.4-10.3c.3-9 .7-10.8 3.3-15.6 2.3-4.2 7-9.1 12.4-12.8.3-.2-.9-1.8-2.7-3.6-7.4-7.7-9.4-20-4.7-29.2 1.3-2.7 2.2-5.2 1.9-5.6-1.4-2.3-13.1-4-19.1-2.8zm68.6-.1c-3.9.7-8.9 2.5-8.9 3.3 0 .1 1.1 2.4 2.5 5.1 4.7 9.3 2.7 21.6-4.8 29.4-3.1 3.2-3.1 3.4-1.2 4.4 3.3 1.8 9.4 8.6 11.7 13.1 1.7 3.3 2.3 6.4 2.6 14.4l.4 10.3h15.3c12 0 15.5-.3 16.4-1.4.9-1.1 1.1-9 .9-29.3-.3-26.6-.4-28-2.6-32.4-6-12.3-19.1-19.1-32.3-16.9z"/><path d="M56.5 51.4C50.7 54 46 61.5 46 68c0 10.7 11.9 19.7 22.2 16.9 5.7-1.5 12.4-8.2 13.3-13.2 1.4-7.1-1.6-14.5-7.7-19-3.5-2.6-13-3.3-17.3-1.3zM58 93.9c-7.1 2.3-12.3 6.7-15.5 13.1-2.3 4.5-3.3 17.4-1.5 19.5 1.9 2.2 44.1 2.2 46 0 1.8-2.1.8-15-1.5-19.5-2.4-4.8-6.3-8.8-10.9-11.2-4.3-2.2-12.8-3.2-16.6-1.9z"/></svg>