<svg version="1.0" xmlns="http://www.w3.org/2000/svg" width="170.667" height="170.667" viewBox="0 0 128 128"><path d="M101.5 10.5c-18.8 4.3-31.7 9.8-46 19.3l-8.7 5.7 21.3.3c13.6.1 21.7.6 22.6 1.3 1 .9 1.3 6 1.3 22.7v21.5l3.3-4.4c11.2-14.7 20.2-36.8 23.8-58.1 2-11.9.6-12.6-17.6-8.3z"/><path d="m33.4 49.7-4.7 5.8 20.3.3c12.8.1 20.8.6 21.7 1.3.9.8 1.3 6.2 1.5 21.6l.3 20.6 5.8-4.7 5.7-4.7V44H38.1l-4.7 5.7z"/><path d="M20 68.7C14.2 78 8 95.4 8 102.5c0 4.3 1.6 5.5 7.1 5.5h4.8l.3 5.1c.4 7.2 1.7 7.8 11.6 5.8 8.8-1.9 20.4-6.5 27.5-10.9l4.7-3V64H23l-3 4.7z"/></svg>