<svg version="1.0" xmlns="http://www.w3.org/2000/svg" width="170.667" height="170.667" viewBox="0 0 128 128"><path d="M50.9 6.3c-12.7 5.3-20.7 15.2-22.8 28.3-2.5 16.3 5.4 31.1 20.9 38.7 5.7 2.8 7.4 3.2 15 3.2s9.3-.4 15-3.2C90.5 67.6 98 58 99.9 46.4c2.5-16.2-6-32.4-20.7-39.2C71 3.4 58.8 3 50.9 6.3z"/><path d="M28.2 74C14.8 82.9 4.7 97.8 1.3 113.3c-1.3 6.2-1.4 7.9-.3 9.1 1.1 1.4 8.4 1.6 63 1.6 53.8 0 61.9-.2 63-1.5 1-1.2 1-2.8 0-7.8-3.3-16.8-14-32.4-28.6-41.7l-4.8-3-2.5 2.3C84.1 78.7 75 82 64 82s-20.1-3.3-27.1-9.7l-2.6-2.4-6.1 4.1z"/></svg>