<svg version="1.0" xmlns="http://www.w3.org/2000/svg" width="682.667" height="682.667" viewBox="0 0 512 512"><path d="M124.1 52.6c-7.6 2-13.2 5.3-25.1 14.8-30.8 24.3-41.5 38.1-45.6 58.6-4.1 20.5 1 38.9 23.1 82.5 26.1 51.7 55.7 92.7 95 132 40.6 40.6 83.8 71.3 137 97.4 38.2 18.7 55.1 24.1 71.3 22.7 17.2-1.6 30.1-8.3 45.2-23.5 11.3-11.4 27.8-32 31.1-38.9 8.8-18 1.6-40.6-17-53.1-15.3-10.3-86.1-48.7-94.4-51.3-8.9-2.7-20.1-2.2-26.5 1.1-8.8 4.5-15.6 13.8-18.6 25.5-2.6 9.9-5.3 12.6-12.6 12.6-5.4 0-9.4-2.3-21.5-12.5-24.5-20.5-48.9-44.4-67.5-66.2-16.6-19.3-18.3-21.7-18.8-27.7-.4-4.8-.1-5.7 2.4-8.5 2.1-2.3 4.6-3.6 8.9-4.7 17.9-4.7 28.5-14.9 30.2-29.3 1.3-10.9-2.6-20.8-17.5-45.2-3.9-6.4-13-23-20.3-37-7.2-14-14.5-27.4-16.2-29.9-6.9-10.4-15.3-16.9-25.2-19.5-7.2-1.8-10.3-1.8-17.4.1z"/></svg>