<svg version="1.0" xmlns="http://www.w3.org/2000/svg" width="170.667" height="170.667" viewBox="0 0 128 128"><path d="M52.5 1.4c-13.1 3-22.8 8.3-31.8 17.3C1.9 37.5-3 66.5 8.9 89.7l2 4.1-5.4 16.3c-3 9-5.1 16.7-4.7 17.1.5.5 8.5-1.6 17.8-4.5l16.9-5.4 3.6 1.8c9 4.5 24.2 6.6 34.9 5 23.9-3.7 43.6-20.4 51.1-43.3 3.3-10.1 3.4-26.1.2-36.3-6.1-19.3-20.9-34.4-40.4-41.2-9-3.1-23.4-4-32.4-1.9zm24 13.1C85.9 16.9 92.9 21 100 28c19.9 19.8 19.8 49.2-.2 69.2-14.9 14.9-36.5 18.5-56.2 9.5l-7.1-3.3-7.7 2.5c-4.3 1.4-8 2.2-8.3 1.9-.3-.3.6-3.8 2-7.7l2.6-7.2-4-8.2c-9.8-20-6.5-41.3 8.9-56.7 12.4-12.4 30.4-17.6 46.5-13.5z"/><path d="M42.3 34.1c-4.8 1.4-7.7 6.1-8.1 13.5-.4 5.5 0 6.9 2.8 12.2 9.5 17.9 26.7 30.6 43.3 32 6.7.5 10.7-.9 14.2-5 2.9-3.4 4.2-9.2 2.5-11.3-1.4-1.7-13.6-7.5-15.9-7.5-.9 0-3 1.7-4.7 3.7-3 3.6-3.1 3.6-6.4 2.3-3.8-1.6-17-13.6-17-15.5 0-.7.9-2.4 2-3.8 2.6-3.3 2.5-5.4-.6-13.2-3.4-8.4-5.1-9.4-12.1-7.4z"/></svg>