<?xml version="1.0" standalone="no"?>
<!DOCTYPE svg PUBLIC "-//W3C//DTD SVG 20010904//EN"
 "http://www.w3.org/TR/2001/REC-SVG-20010904/DTD/svg10.dtd">
<svg version="1.0" xmlns="http://www.w3.org/2000/svg"
 width="512.000000pt" height="512.000000pt" viewBox="0 0 512.000000 512.000000"
 preserveAspectRatio="xMidYMid meet">

<g transform="translate(0.000000,512.000000) scale(0.100000,-0.100000)"
fill="#000000" stroke="none">
<path d="M1241 4594 c-76 -20 -132 -53 -251 -148 -308 -243 -415 -381 -456
-586 -41 -205 10 -389 231 -825 261 -517 557 -927 950 -1320 406 -406 838
-713 1370 -974 382 -187 551 -241 713 -227 172 16 301 83 452 235 113 114 278
320 311 389 88 180 16 406 -170 531 -153 103 -861 487 -944 513 -89 27 -201
22 -265 -11 -88 -45 -156 -138 -186 -255 -26 -99 -53 -126 -126 -126 -54 0
-94 23 -215 125 -245 205 -489 444 -675 662 -166 193 -183 217 -188 277 -4 48
-1 57 24 85 21 23 46 36 89 47 179 47 285 149 302 293 13 109 -26 208 -175
452 -39 64 -130 230 -203 370 -72 140 -145 274 -162 299 -69 104 -153 169
-252 195 -72 18 -103 18 -174 -1z"/>
</g>
</svg>
