<?xml version="1.0" standalone="no"?>
<!DOCTYPE svg PUBLIC "-//W3C//DTD SVG 20010904//EN"
 "http://www.w3.org/TR/2001/REC-SVG-20010904/DTD/svg10.dtd">
<svg version="1.0" xmlns="http://www.w3.org/2000/svg"
 width="128.000000pt" height="128.000000pt" viewBox="0 0 128.000000 128.000000"
 preserveAspectRatio="xMidYMid meet">

<g transform="translate(0.000000,128.000000) scale(0.100000,-0.100000)"
fill="#000000" stroke="none">
<path d="M525 1266 c-131 -30 -228 -83 -318 -173 -188 -188 -237 -478 -118
-710 l20 -41 -54 -163 c-30 -90 -51 -167 -47 -171 5 -5 85 16 178 45 l169 54
36 -18 c90 -45 242 -66 349 -50 239 37 436 204 511 433 33 101 34 261 2 363
-61 193 -209 344 -404 412 -90 31 -234 40 -324 19z m240 -131 c94 -24 164 -65
235 -135 199 -198 198 -492 -2 -692 -149 -149 -365 -185 -562 -95 l-71 33 -77
-25 c-43 -14 -80 -22 -83 -19 -3 3 6 38 20 77 l26 72 -40 82 c-98 200 -65 413
89 567 124 124 304 176 465 135z"/>
<path d="M423 939 c-48 -14 -77 -61 -81 -135 -4 -55 0 -69 28 -122 95 -179
267 -306 433 -320 67 -5 107 9 142 50 29 34 42 92 25 113 -14 17 -136 75 -159
75 -9 0 -30 -17 -47 -37 -30 -36 -31 -36 -64 -23 -38 16 -170 136 -170 155 0
7 9 24 20 38 26 33 25 54 -6 132 -34 84 -51 94 -121 74z"/>
</g>
</svg>
